<svg class="gear-icon" data-name="Layer 1" xmlns="http://www.w3.org/2000/svg" viewBox="0 0 200 200" height="50" width="50">
  <path d="M199 109.5v-20l-21.5-5.4c-.7-3.5-1.6-7-2.8-10.3l15.9-15.4-10-17.3-21.4 6.1c-2.3-2.7-4.8-5.2-7.5-7.5l6.1-21.4-17.3-10-15.4 15.9c-3.3-1.1-6.8-2.1-10.3-2.8L109.5 0h-20l-5.4 21.5c-3.5.7-7 1.6-10.3 2.8l-15.4-16-17.3 10 6.1 21.4c-2.7 2.3-5.2 4.8-7.5 7.5l-21.4-6.1-10 17.3 15.9 15.4c-1.1 3.3-2.1 6.8-2.8 10.3L0 89.5v20l21.5 5.4c.7 3.5 1.6 7 2.8 10.3l-16 15.4 10 17.3 21.4-6.1c2.3 2.7 4.8 5.2 7.5 7.5l-6.1 21.4 17.3 10 15.4-15.9c3.3 1.1 6.8 2.1 10.3 2.8l5.4 21.5h20l5.4-21.5c3.5-.7 7-1.6 10.3-2.8l15.4 15.9 17.3-10-6.1-21.4c2.7-2.3 5.2-4.8 7.5-7.5l21.4 6.1 10-17.3-15.9-15.4c1.1-3.3 2.1-6.8 2.8-10.3l21.4-5.4zm-159-10C40 66.6 66.6 40 99.5 40S159 66.6 159 99.5 132.4 159 99.5 159 40 132.4 40 99.5z" fill="#8d3e14" />
</svg>